<?xml version="1.0" encoding="utf-8"?>
<!-- Generator: Adobe Illustrator 16.0.0, SVG Export Plug-In . SVG Version: 6.00 Build 0)  -->
<!DOCTYPE svg PUBLIC "-//W3C//DTD SVG 1.1//EN" "http://www.w3.org/Graphics/SVG/1.1/DTD/svg11.dtd">
<svg version="1.1"
	 id="Layer_1" image-rendering="optimizeQuality" shape-rendering="geometricPrecision" text-rendering="geometricPrecision"
	 xmlns="http://www.w3.org/2000/svg" xmlns:xlink="http://www.w3.org/1999/xlink" x="0px" y="0px" width="2488.154px"
	 height="1399.02px" viewBox="-294.5 -72.52 2488.154 1399.02" enable-background="new -294.5 -72.52 2488.154 1399.02"
	 xml:space="preserve">
<g id="Слой_x0020_1">
	<g id="_557506520">
		<polygon fill="#2F2F2F" points="1853,1300 1992,443 1986,424 308,772 3,1045 		"/>
		<path fill="#E8E9EA" d="M623,1126c136,18,273,35,409,53c269,35,539,70,809,105c12-70,23-140,35-211c10-58,19-116,29-173
			c-243,0-487,2-731,6h-9h-14c-109,2-218,6-327,9h-1c-19,0-39,1-58,2c-23,32-46,64-69,97C671,1051,647,1088,623,1126z"/>
		<path fill="#E8E9EA" d="M894,754c-21,25-41,50-61,75c-22,27-43,55-64,83c132-4,265-8,398-11c246-5,493-7,739-7c8-49,16-97,25-146
			c6-41,13-82,20-123c-223,25-446,50-669,78C1152,719,1023,737,894,754z"/>
		<path fill="#E8E9EA" d="M1986,421c-201,42-401,84-601,125c-126,26-251,52-376,78c-19,20-37,41-55,61c-19,21-38,43-56,65
			c128-18,256-35,385-51c223-29,446-54,669-79c6-35,12-71,18-106C1975,483,1981,452,1986,421z"/>
		<path fill="#E8E9EA" d="M336,934c-21,22-42,44-63,66c-22,24-44,48-65,72c54,7,108,14,163,21c82,11,164,22,246,32
			c24-38,49-75,74-113c22-32,45-64,68-95c-83,3-166,6-249,9C452,929,394,932,336,934z"/>
		<path fill="#E8E9EA" d="M455,817c-19,19-38,37-57,55c-19,19-39,39-58,58c57-2,114-5,171-8c84-3,168-7,252-10c21-28,42-56,64-84
			c20-25,40-49,60-73c-84,12-168,24-252,36C575,799,515,808,455,817z"/>
		<path fill="#E8E9EA" d="M562,717c-17,16-34,32-51,48c-18,16-35,32-52,48c59-9,118-17,177-26c85-12,170-24,255-36
			c19-23,38-45,58-67c17-20,35-39,53-58c-84,17-169,35-253,52C686,691,624,704,562,717z"/>
		<path fill="#E8E9EA" d="M204,1072c21-25,43-49,66-73c20-22,41-43,61-64c-41,2-83,4-124,6c-32,2-65,4-97,6c-18,16-36,32-54,49
			c-19,16-38,33-56,49c29,4,57,8,86,11C125,1061,164,1067,204,1072z"/>
		<path fill="#E8E9EA" d="M213,854c-16,15-33,30-49,44c-17,15-33,30-50,45c31-2,63-4,94-5c42-3,85-5,127-7c20-20,40-40,60-60
			c18-18,36-35,54-53c-44,7-87,13-131,20C283,843,248,849,213,854z"/>
		<path fill="#E8E9EA" d="M454,814c17-17,35-34,53-51c17-15,33-30,49-44c-46,9-92,19-138,28c-37,8-75,16-112,24c-15,13-29,26-44,40
			c-15,13-30,26-45,39c34-5,68-10,101-15C363,828,408,821,454,814z"/>
		
			<linearGradient id="SVGID_1_" gradientUnits="userSpaceOnUse" x1="263.5" y1="190.5" x2="2142.5" y2="190.5" gradientTransform="matrix(1 0 0 -1 -192.5 1036.5)">
			<stop  offset="0" style="stop-color:#CCE1EB"/>
			<stop  offset="0.3216" style="stop-color:#6AAED5"/>
			<stop  offset="0.4902" style="stop-color:#1D8BCA"/>
			<stop  offset="1" style="stop-color:#0C1A67"/>
		</linearGradient>
		<path fill="url(#SVGID_1_)" d="M769,929l-23,32l3,5h63l11-5l22-33l-4-5l-62,2L769,929z M824,755l53-8l10-4l19-22l-13,15
			c-14,5-29,10-42,15L824,755z M949,709l60-9l11-5l18-22l-13,16c-14,5-28,10-42,15L949,709z M938,716l-20,22l4,3l61-9l11-5l19-23
			l-5-2l-33,5l-10,3c-11,4-22,8-33,12L938,716z M1029,688l-5,7l4,2l68-11l11-5l18-23l-5-2C1089,667,1059,677,1029,688z M1027,699
			l-11,4l-19,24l5,3l68-10l11-5l19-25l-5-2L1027,699z M1136,648l6,2l75-13l11-5l17-23l-2,4c-36,12-70,24-104,36L1136,648z M1141,652
			l-11,5l-19,23l6,3l75-12l12-5l18-25l-7-2L1141,652z M1116,685l-12,5l-18,24l5,3l76-10l12-6l18-25l-6-3L1116,685z M1264,601l82-16
			l13-5l6-10c-24,9-48,17-72,25L1264,601z M1250,608l-17,23l7,2l83-14l13-6l16-24l-7-2l-83,16l21-4l-35,12L1250,608z M1239,635
			l-13,6l-17,24l7,2l84-12l13-6l16-26l-7-2L1239,635z M1214,670l-12,5l-18,26l7,3l85-12l13-5l17-28l-7-2L1214,670z M1371,568l-7,11
			l7,2l93-18l14-6l14-24l-9-2l-17,4C1433,546,1402,557,1371,568z M1466,535l-74,15L1466,535L1466,535z M1370,582l-13,6l-16,25l8,2
			l94-16l14-6l15-26l-9-2L1370,582z M1347,617l-12,5l-17,26l8,3l96-15l13-6l16-27l-9-2L1347,617z M1324,653l-12,5l-18,28l8,3l97-13
			l14-6l16-29l-9-2L1324,653z M1511,526l-13,6l-15,24l9,2l104-19l16-7l13-26l-12-1L1511,526z M1491,560l-14,6l-15,26l9,2l107-18
			l16-6l13-28l-12-1L1491,560z M1470,596l-14,6l-15,27l9,3l109-16l16-7l14-28l-12-2L1470,596z M1449,634l-14,6l-16,29l10,3l110-14
			l17-6l14-31l-12-3L1449,634z M1647,498l-16,7l-12,26l11,1l120-22l16-7l10-27l-13-2L1647,498z M1629,534l-15,7l-13,28l11,2l123-20
			l17-8l10-29l-13-1L1629,534z M1611,573l-16,6l-13,29l12,3l126-18l18-7l10-31l-14-2L1611,573z M1593,613l-16,7l-14,31l12,3l129-16
			l18-7l11-33l-14-2L1593,613z M1800,467l-16,7l-10,28l13,1l139-25l18-7l6-30l-16-1L1800,467z M1787,506l-17,7l-10,29l14,2l143-23
			l18-7l7-32l-17-1L1787,506z M1773,547l-17,7l-11,31l15,2l147-20l19-8l7-33l-17-2L1773,547z M1759,590l-18,7l-11,33l15,3l152-17
			l20-8l6-35l-17-3L1759,590z M391,922h1l0,0H391z M392,922l30-1l7-4l21-22l-7,8C426,909,409,916,392,922z M460,890l20-2l0,0
			L460,890z M480,888l14-1l8-3l20-22l-15,16C498,882,489,885,480,888z M446,901l-15,16l1,3l34-2l7-3l21-23l-1-3l-19,1
			C465,894,455,898,446,901z M524,862l-20,21l1,3l37-2l7-4l21-23l-1-3v1c-20,7-40,15-59,22L524,862z M503,888l-7,4l-21,23l1,3l37-2
			l7-4l21-23l-1-4L503,888z M580,849l2,3l40-5l8-3l20-23l-4,5c-22,8-44,16-65,24L580,849z M580,853l-8,4l-20,22l1,4l40-3l8-4l21-24
			l-2-3L580,853z M551,885l-7,3l-22,24l2,3l40-2l8-4l21-24l-1-4L551,885z M680,813l27-3l8-4l8-9C709,803,694,808,680,813z M653,821
			l-20,22l2,3l44-4l8-4l21-23l-3-3l-32,4c-8,3-15,5-23,8L653,821z M633,848l-8,4l-21,23l2,4l44-4l8-4l21-24l-2-3L633,848z M604,881
			l-8,4l-21,24l1,4l44-2l9-5l21-25l-2-4L604,881z M738,784l-20,22l3,2l48-5l9-5l20-22l-3-3l-48,7l40-6c-20,7-40,15-60,22L738,784z
			 M719,810l-9,4l-20,23l2,4l49-5l9-4l21-25l-3-2L719,810z M691,842l-9,5l-21,24l2,3l49-3l9-5l21-25l-3-3L691,842z M661,876l-8,5
			l-22,25l3,4l48-2l9-5l22-27l-3-3L661,876z M810,771l-9,4l-20,23l3,3l53-6l10-5l20-24l-4-2L810,771z M782,803l-9,4l-20,24l2,3l54-5
			l9-4l21-25l-3-3L782,803z M754,836l-9,5l-21,25l2,4l54-4l9-5l21-26l-3-4L754,836z M725,872l-9,4l-22,27l2,4l54-2l10-5l21-28l-3-4
			L725,872z M898,762l-20,25l4,3l61-7l11-5l19-25l-4-3l-61,8L898,762z M880,792l-10,4l-20,26l3,3l62-5l11-5l20-27l-4-3L880,792z
			 M852,827l-10,5l-21,27l4,4l61-4l11-5l21-28l-4-4L852,827z M823,865l-10,5l-22,29l4,4l62-2l10-6l22-30l-4-4L823,865z M988,747
			l-11,5l-19,25l4,4l69-8l11-5l20-27l-6-3L988,747z M960,783l-10,5l-20,26l4,4l69-6l12-5l19-28l-5-4L960,783z M932,820l-10,5l-21,29
			l4,4l70-5l11-5l21-30l-6-4L932,820z M903,860l-10,5l-22,30l4,5l70-3l12-5l21-32l-5-4L903,860z M1078,736l-12,5l-19,26l6,4l76-8
			l12-6l19-28l-7-3L1078,736z M1051,773l-12,5l-20,28l6,4l77-6l12-6l19-30l-6-3L1051,773z M1023,812l-12,6l-20,30l6,4l77-5l13-5
			l20-32l-7-4L1023,812z M995,854l-12,6l-21,32l5,4l79-2l12-6l21-34l-7-4L995,854z M1177,723l-12,6l-19,28l7,3l87-9l13-6l18-29l-8-3
			L1177,723z M1151,762l-12,6l-19,30l6,4l88-7l13-6l19-32l-8-3L1151,762z M1125,804l-13,6l-20,31l7,5l88-5l14-6l19-34l-8-4L1125,804
			z M1097,849l-13,5l-20,34l6,5l90-3l14-6l20-36l-8-4L1097,849z M1289,709l-13,6l-18,30l8,3l100-9l14-7l17-31l-10-3L1289,709z
			 M1265,751l-14,6l-18,31l8,4l100-7l15-6l17-34l-9-4L1265,751z M1239,795l-14,6l-18,34l8,4l102-5l15-6l17-36l-9-5L1239,795z
			 M1213,842l-14,6l-20,36l8,6l104-3l15-7l19-38l-10-5L1213,842z M1417,694l-15,6l-16,32l10,4l113-11l18-7l14-33l-12-4L1417,694z
			 M1394,738l-15,6l-17,34l10,4l116-8l18-7l15-35l-13-4L1394,738z M1371,785l-16,7l-17,35l10,6l118-6l18-7l15-38l-12-5L1371,785z
			 M1347,835l-16,7l-19,38l11,6l120-2l18-7l17-41l-14-6L1347,835z M1565,677l-17,7l-14,34l13,3l133-11l18-8l12-35l-15-4L1565,677z
			 M1546,724l-18,7l-15,36l13,5l137-9l19-8l12-38l-15-4L1546,724z M1525,774l-18,7l-16,39l14,5l139-5l20-8l13-41l-15-5L1525,774z
			 M1504,829l-18,6l-17,42l14,6l142-2l20-8l14-44l-16-6L1504,829z M1737,658l-18,8l-12,36l15,4l159-13l21-8l8-39l-19-4L1737,658z
			 M1722,709l-20,7l-11,39l15,5l163-10l22-7l8-42l-19-5L1722,709z M1705,763l-19,7l-13,42l16,6l168-6l22-8l9-45l-20-5L1705,763z
			 M1688,821l-20,8l-13,44l16,7l172-1l23-8l9-49l-19-6L1688,821z M71,1049l19,2l5-3l21-20l-7,6c-12,5-25,10-37,15H71z M135,1024h9
			l5-3l6-5C148,1019,141,1021,135,1024z M117,1028l-21,20l-1,3l20,3l5-4l21-21l1-3l-11-1c-7,3-13,6-20,8L117,1028z M171,1001l-21,20
			v4l21,1l6-3l21-21v-3l0,0c-14,5-28,11-41,16L171,1001z M148,1026l-6,4l-20,21l-1,3l21,3l6-3l21-23l1-3L148,1026z M207,994l-1,3
			l24,1l6-4l20-21l-4,4l-45,18V994z M205,999l-6,3l-21,21v4l23,1l6-3l21-22v-4H205z M176,1028l-6,4l-21,22l-1,3l23,3l6-3l21-23l1-4
			L176,1028z M276,968h15l7-3l8-9c-9,4-17,7-25,10L276,968z M258,973l-21,21v4h25l6-3l21-22l1-3h-26h7l-16,6L258,973z M235,1000
			l-6,3l-21,22v4l24,1l7-3l21-23l1-4H235z M206,1031l-6,3l-22,23v4l24,3l6-4l22-24l1-4L206,1031z M333,943l-21,21v4l28-1l7-3l21-22
			v-4l-29,2l10-1c-7,3-14,6-21,8L333,943z M310,969l-6,4l-21,22l-1,4l29,1l6-4l22-23v-4H310z M281,1001l-7,3l-21,24l-1,4l28,2l7-4
			l22-25v-3L281,1001z M251,1034l-7,3l-22,25v4l27,3l7-3l22-26v-4L251,1034z M376,938l-6,4l-21,22v3h31l7-4l21-23l-1-3L376,938z
			 M347,969l-6,4l-22,23v4l30,1l8-4l21-24v-4H347z M317,1002l-6,3l-22,25v4l29,2l8-4l22-25v-4L317,1002z M287,1036l-7,4l-22,26l-1,4
			l30,4l7-4l23-27v-5L287,1036z M417,936l-7,4l-21,23v4h33l8-4l21-24l-1-4L417,936z M387,969l-7,4l-21,24v4l33,1l7-4l22-26v-3H387z
			 M357,1003l-7,4l-22,25v5l32,2l8-4l23-27l-1-4L357,1003z M326,1039l-7,4l-23,27v5l32,3l8-4l23-28l-1-5L326,1039z M461,935l-8,4
			l-21,24v4l37-1l7-4l22-25l-1-4L461,935z M431,969l-8,3l-22,26l1,4l36,1l8-4l22-27l-1-4L431,969z M400,1004l-7,4l-23,27v5l36,2l8-4
			l23-28l-1-5L400,1004z M368,1042l-7,4l-23,29v5l35,4l8-5l24-30l-1-4L368,1042z M508,933l-8,4l-21,25l1,4h39l9-4l22-27l-2-3
			L508,933z M478,968l-8,4l-22,27l1,5l39,1l8-4l23-29l-1-4H478z M447,1006l-8,4l-23,28l1,5l39,3l8-5l23-29l-1-5L447,1006z M415,1045
			l-8,5l-24,30l1,5l39,5l8-5l24-32l-1-5L415,1045z M561,931l-9,4l-22,27l2,4h43l9-5l22-27l-1-4L561,931z M530,968l-8,4l-23,29l1,4
			l44,2l8-5l23-29l-1-5H530z M498,1008l-8,4l-23,30l1,5l43,3l9-5l23-31l-1-5L498,1008z M466,1049l-8,5l-24,31l1,6l42,5l9-5l25-33
			l-2-6L466,1049z M618,929l-9,5l-22,27l2,5h48l9-5l23-29l-3-4L618,929z M587,968l-9,5l-23,29l2,5l48,2l9-5l23-31l-2-5H587z
			 M555,1009l-9,5l-23,31l1,6l48,3l10-5l23-33l-2-5L555,1009z M522,1053l-9,5l-24,34l2,6l47,5l10-5l24-35l-2-6L522,1053z M681,927
			l-10,5l-22,29l2,5h53l10-5l23-31l-3-4L681,927z M649,968l-9,5l-23,31l2,5l53,2l11-5l23-33l-3-5H649z M617,1012l-9,4l-24,34l2,5
			l53,4l11-5l23-35l-3-5L617,1012z M584,1058l-9,5l-24,36l1,6l53,6l11-5l24-38l-3-6L584,1058z M748,968l-11,5l-23,34l3,6l63,2l11-5
			l23-36l-4-5L748,968z M715,1015l-10,5l-24,36l3,7l63,5l11-6l24-38l-4-6L715,1015z M682,1066l-10,5l-25,39l3,7l63,7l11-6l25-41
			l-4-6L682,1066z M860,923l-11,5l-22,33l4,5l70,1l12-6l22-35l-5-5L860,923z M829,969l-11,5l-23,36l4,6l70,3l12-6l23-38l-5-5
			L829,969z M797,1019l-11,5l-24,38l4,7l71,5l12-5l23-41l-5-6L797,1019z M764,1072l-12,6l-24,41l4,7l71,9l12-6l25-44l-5-7L764,1072z
			 M952,921l-12,5l-22,35l5,6l79,1l13-6l22-37l-7-6L952,921z M921,970l-12,5l-23,38l6,7l79,3l14-6l22-40l-7-6L921,970z M890,1023
			l-13,5l-23,41l5,7l80,7l14-7l23-43l-7-7L890,1023z M857,1080l-12,5l-25,44l6,9l80,9l14-6l23-47l-6-8L857,1080z M1055,919l-13,5
			l-21,38l6,6l91,1l15-6l20-40l-8-6L1055,919z M1025,971l-13,6l-22,40l6,7l92,4l15-6l21-43l-8-7L1025,971z M995,1027l-14,6l-23,44
			l7,8l92,7l15-6l22-47l-8-7L995,1027z M963,1088l-14,6l-24,47l7,9l93,12l15-7l24-51l-8-8L963,1088z M1173,917l-14,6l-21,40l8,6
			l106,2l16-7l19-42l-10-6L1173,917z M1145,973l-15,6l-21,43l8,7l107,6l16-7l20-46l-10-7L1145,973z M1115,1033l-15,6l-22,47l8,8
			l109,9l16-7l21-50l-10-8L1115,1033z M1084,1098l-15,7l-23,50l8,10l110,13l17-7l22-54l-10-9L1084,1098z M1310,915l-17,7l-19,43
			l10,7l124,2l18-7l18-46l-14-6H1310z M1283,975l-17,7l-20,46l11,8l125,7l20-7l18-50l-14-8L1283,975z M1255,1040l-17,7l-20,50l10,9
			l127,11l20-7l19-54l-14-9L1255,1040z M1226,1110l-17,7l-22,55l11,10l129,16l21-7l20-59l-14-11L1226,1110z M1471,914l-19,7l-17,46
			l14,8l147,4l21-8l14-49l-16-8H1471z M1447,979l-19,7l-18,50l14,9l150,8l22-8l15-54l-16-8L1447,979z M1422,1049l-19,7l-19,54l14,11
			l153,13l23-8l16-59l-17-9L1422,1049z M1396,1125l-20,7l-19,60l14,11l156,19l24-8l16-64l-17-11L1396,1125z M1662,914l-21,8l-15,49
			l17,9l179,5l24-8l10-54l-20-8L1662,914z M1642,984l-21,8l-15,54l17,10l183,11l25-9l11-59l-21-9L1642,984z M1621,1060l-21,8l-16,59
			l17,11l188,17l26-8l12-65l-22-11L1621,1060z M1600,1143l-23,8l-16,65l17,13l193,23l26-8l13-71l-22-13L1600,1143z"/>
		
			<linearGradient id="SVGID_2_" gradientUnits="userSpaceOnUse" x1="201.5" y1="244.5" x2="1658.5" y2="244.5" gradientTransform="matrix(1 0 0 -1 -192.5 1036.5)">
			<stop  offset="0" style="stop-color:#D4E7EF"/>
			<stop  offset="0.502" style="stop-color:#8EBCDD"/>
			<stop  offset="1" style="stop-color:#0F5AA4"/>
		</linearGradient>
		<path fill="url(#SVGID_2_)" d="M1466,535c-33,11-64,22-95,33l9-13l12-5L1466,535z M1365,570c-24,9-48,17-72,25l-29,6l-7-2l17-22
			l12-5l81-17l7,1L1365,570z M1283,599l-35,12l2-3l12-5L1283,599z M1243,613c-36,12-70,24-104,36l-3-1l18-22l12-5l73-14l6,2
			L1243,613z M1120,656c-31,11-61,21-91,32l13-16l10-5L1120,656L1120,656z M1025,689c-14,5-28,10-42,15l-34,5l-4-2l19-21l9-5l61-10
			l4,2L1025,689z M975,707l-10,3c-11,4-22,8-33,12l6-6l9-5L975,707z M893,736c-14,5-29,10-42,15l-27,4l-3-3l20-21l8-4l54-9l3,3
			L893,736z M787,774c-20,7-40,15-60,22l11-12l9-4L787,774z M723,797c-14,6-29,11-43,16l-17,2l-2-2l19-21l8-4l45-7l2,3L723,797z
			 M673,816c-8,3-15,5-23,8l3-3l8-4L673,816z M646,826c-22,8-44,16-65,24l-1-1l20-22l8-3l40-5l2,2L646,826z M569,855
			c-20,7-40,15-59,22l14-15l7-4l38-4V855z M507,878c-9,4-18,7-27,10l-20,2v-3l20-21l7-3l34-4l1,3L507,878z M474,890c-9,4-19,8-28,11
			l6-6l7-3L474,890z M443,903c-17,6-34,13-51,19h-1v-3l20-21l7-3l31-3l1,3L443,903z M349,939c-7,3-14,6-21,8l5-4l6-3L349,939z
			 M306,956c-9,4-17,7-25,10l-5,2h-10v-3l20-20l6-3l26-2v4L306,956z M271,970l-16,6l3-3l6-3H271z M252,977l-45,18v-1l20-21l6-3h24
			l-1,3L252,977z M198,999c-14,5-28,11-41,16l14-14l5-3L198,999L198,999z M155,1016c-7,3-14,5-20,8l-11-1l1-3l20-20l5-3l20,1v3
			L155,1016z M131,1025c-7,3-13,6-20,8l6-5l5-3H131z M109,1034c-12,5-25,10-37,15h-1l1-4l21-19l5-3l18,1v4L109,1034z M304,775
			l-15,13v1l19-3l4-3l15-13v-2l-19,4L304,775z M288,790l-5,3l-15,13v2l19-4l4-2l15-14v-1L288,790z M267,809l-5,2l-15,14v2l18-3l5-3
			l15-14v-1L267,809z M246,828l-5,2l-15,15l-1,1l18-2l5-3l16-14v-2L246,828z M333,767l-5,3l-15,13v2l20-4l5-3l15-13v-2L333,767z
			 M312,786l-5,2l-15,14v1l20-3l4-3l16-14v-1L312,786z M291,805l-5,2l-15,14v2l19-4l5-2l15-14l1-2L291,805z M270,824l-5,2l-16,15v2
			l19-3l4-3l17-15v-1L270,824z M359,762l-5,2l-15,14v1l21-4l5-2l15-14v-2L359,762z M338,781l-5,2l-15,14v2l20-4l5-3l16-14v-2
			L338,781z M316,800l-4,2l-16,15v1l20-3l5-3l16-14v-2L316,800z M294,820l-4,2l-16,15l-1,2l21-3l5-3l16-15v-2L294,820z M387,756
			l-5,3l-16,13l1,2l22-4l5-3l15-14v-2L387,756z M365,775l-5,3l-15,14v2l22-4l5-3l16-15v-1L365,775z M343,795l-5,2l-15,15v2l21-4l5-3
			l17-14l-1-2L343,795z M321,815l-5,3l-16,15v2l21-4l5-3l17-15v-2L321,815z M416,750l-5,3l-16,14l1,1l23-4l6-3l15-14v-2L416,750z
			 M394,769l-5,3l-16,15v1l24-4l5-3l16-14v-2L394,769z M372,790l-5,2l-16,15v2l23-4l5-3l17-15l-1-2L372,790z M349,810l-5,3l-17,15v2
			l23-3l6-3l17-16l-1-2L349,810z M447,744l-5,2l-16,15v1l26-5l5-3l16-14v-2L447,744z M425,763l-5,3l-16,15v2l25-5l5-3l17-15l-1-1
			L425,763z M402,784l-5,3l-16,15v2l24-4l6-3l17-16l-1-2L402,784z M379,805l-5,3l-17,15v3l24-4l6-3l17-16v-2L379,805z M480,737l-5,3
			l-16,14v2l26-5l6-3l17-15l-1-2L480,737z M458,757l-6,3l-16,15v2l26-5l6-3l17-15l-1-2L458,757z M435,778l-6,3l-17,15l1,2l26-4l5-3
			l18-16l-1-2L435,778z M411,800l-5,2l-17,17v2l25-4l6-3l18-17l-1-2L411,800z M515,730l-6,2l-16,15l1,2l28-5l6-3l17-16l-1-1L515,730
			z M492,750l-6,3l-16,16l1,1l28-5l5-3l17-15v-2L492,750z M469,772l-6,3l-17,16l1,2l28-5l5-3l18-16l-1-2L469,772z M445,794l-6,3
			l-17,16v2l28-4l6-3l18-17l-1-2L445,794z M561,722l-17,15l1,2l31-6l6-3l17-16l-1-2l-31,7L561,722z M544,740l-7,3l-17,16l1,2l31-5
			l6-4l18-16l-1-2L544,740z M520,763l-7,3l-17,16l1,2l30-5l7-3l17-17l-1-2L520,763z M495,785l-6,3l-18,18l1,2l30-5l6-3l19-18l-1-2
			L495,785z M608,711l-7,3l-17,15l1,2l34-6l6-4l18-16l-2-1L608,711z M584,732l-6,4l-18,16l1,2l33-6l7-4l18-16l-2-2L584,732z
			 M560,755l-7,3l-17,17l1,2l32-5l7-4l18-17l-1-2L560,755z M535,779l-6,3l-19,17l1,3l33-5l7-4l18-18l-1-2L535,779z M651,702l-6,3
			l-17,16l1,2l36-7l7-4l17-16l-2-2L651,702z M628,724l-7,3l-18,17l1,2l36-6l7-4l18-17l-2-2L628,724z M603,747l-7,4l-18,17l1,2l36-6
			l7-3l18-18l-2-2L603,747z M578,771l-7,4l-18,18l1,2l35-5l7-4l19-18l-2-2L578,771z M698,692l-7,3l-17,17l1,2l39-8l7-3l18-17l-2-2
			L698,692z M674,715l-7,3l-18,18l2,2l38-7l7-4l18-18l-1-1L674,715z M649,739l-7,3l-18,18l1,2l39-6l7-4l18-18l-1-2L649,739z
			 M624,764l-7,3l-19,19l1,2l38-6l8-3l19-19l-2-3L624,764z M749,682l-8,3l-17,17l2,2l41-8l8-4l18-17l-2-2L749,682z M724,705l-7,4
			l-18,18l2,2l41-8l8-4l18-18l-2-2L724,705z M699,730l-7,4l-19,18l2,2l41-7l8-3l19-19l-2-2L699,730z M674,756l-8,3l-19,19l2,3l41-6
			l8-4l19-20l-2-2L674,756z M803,670l-7,4l-18,18l2,1l45-8l8-4l18-18l-3-2L803,670z M779,695l-8,4l-18,18l2,2l45-8l8-4l18-19l-2-2
			L779,695z M753,720l-8,4l-18,19l2,2l45-7l8-4l19-20l-3-2L753,720z M728,747l-8,4l-20,19l2,3l45-7l8-4l20-20l-3-3L728,747z
			 M862,658l-8,4l-18,18l3,2l49-9l8-4l18-19l-3-2L862,658z M837,684l-8,3l-18,19l2,2l49-8l9-5l18-19l-3-2L837,684z M812,710l-9,4
			l-18,19l2,3l49-8l9-5l19-20l-3-2L812,710z M786,737l-9,4l-19,21l3,2l49-7l8-4l20-21l-3-3L786,737z M926,645l-9,4l-17,19l2,2l54-10
			l9-5l18-19l-4-2L926,645z M901,671l-9,4l-18,20l3,2l53-10l10-4l18-20l-4-2L901,671z M875,699l-8,4l-19,20l3,2l53-8l10-5l18-21
			l-3-2L875,699z M1014,630l-18,19l4,2l61-12l10-4l17-21l-4-1l-61,12L1014,630z M999,653l-10,4l-18,21l4,2l60-11l10-5l19-21l-5-2
			L999,653z M1102,609l-10,5l-17,20l4,2l67-13l11-5l17-21l-5-2L1102,609z M1078,638l-11,4l-18,22l5,2l67-12l11-5l18-22l-5-2
			L1078,638z M1190,591l-11,5l-18,21l6,2l74-14l11-5l17-22l-6-2L1190,591z M209,859l-16,15v2l17-3l5-2l16-15l1-2l-18,3L209,859z
			 M191,877l-4,2l-17,15v2l17-2l5-2l16-15l1-3L191,877z M168,897l-4,3l-17,15l-1,2l17-1l5-3l17-15l1-3L168,897z M145,918l-5,3
			l-17,16l-1,2l17-1l5-3l17-16l1-2L145,918z M237,853l-5,3l-16,15l-1,2l19-3l5-3l16-15l1-2L237,853z M214,874l-5,2l-16,15l-1,3l18-2
			l5-3l17-16l1-2L214,874z M191,895l-5,2l-17,16l-1,2l18-1l5-3l18-16v-2L191,895z M167,917l-5,2l-17,16l-1,2l17-1l5-2l18-17l1-2
			L167,917z M261,849l-4,3l-17,15v2l19-2l5-3l17-16l1-2L261,849z M238,871l-5,2l-17,16v2l19-2l5-3l18-16v-2L238,871z M215,892l-5,3
			l-18,16v2l19-2l5-2l18-17v-2L215,892z M190,914l-5,3l-18,17v2l19-1l5-3l18-17v-2L190,914z M288,846l-5,2l-17,16l-1,2l21-3l5-3
			l18-16v-2L288,846z M264,867l-5,3l-17,16l-1,2l21-2l5-3l18-16v-3L264,867z M240,889l-5,3l-18,16v3l20-2l5-3l18-17v-2L240,889z
			 M215,912l-5,3l-18,17l-1,2l20-1l5-3l19-17v-3L215,912z M315,841l-5,3l-17,16v2l22-3l5-3l18-16v-2L315,841z M291,864l-5,2l-18,17
			v2l22-2l5-3l18-17v-2L291,864z M267,886l-6,3l-18,17v2l22-1l5-3l18-18l1-2L267,886z M242,910l-6,3l-18,17l-1,3l22-2l5-3l19-18v-2
			L242,910z M345,837l-6,3l-17,16v2l24-3l5-3l18-16v-3L345,837z M320,860l-5,3l-18,16v3l23-3l6-3l18-17v-2L320,860z M295,883l-5,3
			l-19,17v3l23-2l6-3l19-18v-2L295,883z M270,907l-6,3l-19,18v3l23-1l5-3l20-19v-3L270,907z M376,832l-6,3l-18,17l1,2l25-3l6-3
			l18-17l-1-2L376,832z M351,856l-6,3l-18,17v2l25-2l6-3l18-18v-3L351,856z M326,880l-6,3l-19,18v2l25-2l6-3l19-18v-3L326,880z
			 M300,905l-6,3l-19,18v3l24-1l6-3l19-20v-2L300,905z M409,828l-6,3l-18,17v2l28-3l6-4l18-17v-2L409,828z M384,851l-6,4l-18,17v3
			l26-3l7-3l18-19v-2L384,851z M358,876l-6,3l-19,19v3l27-3l6-3l19-19v-3L358,876z M332,902l-6,3l-20,19v3l26-1l7-3l19-20v-3
			L332,902z M452,824l-18,17v3l30-4l7-3l18-19v-2l-30,4L452,824z M433,845l-7,4l-18,18v3l30-4l6-3l19-19v-3L433,845z M406,871l-6,3
			l-19,20v3l29-3l7-3l20-20l-1-3L406,871z M380,898l-7,3l-20,21v3l30-2l6-4l20-20v-3L380,898z M498,815l-7,3l-18,18v3l32-4l7-4
			l19-19l-1-2L498,815z M472,840l-7,4l-19,19l1,3l31-4l7-3l20-20l-1-3L472,840z M445,867l-7,4l-19,20v2l32-2l7-4l20-20l-1-3L445,867
			z M540,809l-7,3l-19,19l1,3l35-5l7-3l19-20l-1-2L540,809z M514,835l-7,4l-20,19l1,3l34-3l8-4l19-21l-1-2L514,835z M585,802l-7,4
			l-19,19l1,3l38-5l7-3l20-21l-1-2L585,802z M559,830l-7,3l-20,21l1,3l37-4l8-4l20-21l-2-3L559,830z M635,795l-8,4l-19,20l1,3l41-5
			l8-4l20-21l-2-3L635,795z M105,953l-18,16l-1,2h16l5-3l18-16l1-3l-16,1L105,953z M85,973l-5,2l-18,16l-1,3h16l4-2l19-17l1-3
			L85,973z M60,995l-5,3l-19,17l-1,2l15,1l5-2l19-18l1-2L60,995z M34,1019l-5,2l-19,17l-1,3l15,2l4-3l20-17l1-3L34,1019z M131,949
			l-5,3l-18,16l-1,3h17l5-3l19-17l1-3L131,949z M106,972l-5,3l-19,17l-1,2l17,1l5-3l19-17l1-3H106z M80,996l-5,2l-19,18l-1,3l17,1
			l4-3l20-18l1-3H80z M54,1020l-5,3l-20,17l-1,3l16,2l5-2l20-19l1-3L54,1020z M154,948l-5,3l-19,17l-1,2h19l5-3l19-17v-3L154,948z
			 M128,972l-5,3l-19,17l-1,3h18l5-3l20-18v-2H128z M102,996l-5,3l-19,18l-2,3l18,1l5-3l20-18l1-3L102,996z M75,1022l-5,2l-20,19
			l-1,3l17,2l5-3l20-19l1-3L75,1022z M178,947l-5,3l-19,17l-1,3h20l5-3l19-18l1-3L178,947z M152,971l-5,3l-20,18v3l19,1l5-3l20-19
			v-3H152z M125,997l-5,3l-20,18l-1,4l19,1l5-3l20-20l1-3H125z M204,946l-6,3l-19,18v3l20-1l6-3l19-19l1-2L204,946z M177,971l-5,3
			l-20,19l-1,3h21l5-3l20-19l1-3H177z M231,944l-5,3l-20,19v3h22l6-3l19-20l1-3L231,944z M204,971l-5,3l-20,19l-1,3l22,1l6-3l20-21
			v-3L204,971z M261,943l-6,3l-20,20v3l23-1l7-3l19-20l1-3L261,943z"/>
		<polygon fill="#606062" points="54,1053 1853,1300 1763,1311 64,1059 		"/>
		<path fill="#FFC615" d="M921,301c170-2,312,102,341,241L596,680c-9-25-14-53-14-81C580,436,732,302,921,301z"/>
		<path fill="#FFC615" d="M918,0l20,138l19,137c-12,0-24-1-36-1s-24,1-36,2l16-138L918,0z"/>
		<path fill="#FFC615" d="M239,603l159,14l158,14c-1-10-2-21-2-31c0-11,1-22,2-32l-158,17L239,603z"/>
		<path fill="#FFC615" d="M1262,77l-63,128l-62,127c-19-12-41-22-63-31l94-112L1262,77z"/>
		<path fill="#FFC615" d="M327,304l130,81l129,81c10-19,22-37,36-55l-147-53L327,304z"/>
		<path fill="#FFC615" d="M1515,292l-128,84l-127,84c-10-19-22-37-37-54l146-57L1515,292z"/>
		<path fill="#FFC615" d="M576,83l65,127l65,127c19-13,40-24,62-33l-96-110L576,83z"/>
		<path fill="#FFC615" d="M804,139l28,71l29,69c-13,2-26,5-38,8l-10-74L804,139z"/>
		<path fill="#FFC615" d="M1450,490l-81,25l-49,15l-31,7c-3-10-5-20-8-30l84-8L1450,490z"/>
		<path fill="#FFC615" d="M399,702l85-9l85-8c-4-11-7-22-9-33l-80,25L399,702z"/>
		<path fill="#FFC615" d="M557,253l65,49l65,48c-10,7-20,15-29,23l-50-60L557,253z"/>
		<path fill="#FFC615" d="M1319,276l-55,57l-56,56c-8-9-17-17-26-25l68-44L1319,276z"/>
		<path fill="#FFC615" d="M409,459l84,14l84,13c-5,11-9,21-12,32l-77-29L409,459z"/>
		<path fill="#FFC615" d="M1083,147l-16,74l-15,73c-13-4-25-8-38-10l34-68L1083,147z"/>
		<path fill="#FFFFFF" d="M1046,903c1,1,3,3,4,5l0,0c1,2,1,5,1,7c0,1,0,2,0,4c0,1-1,3-1,4c0,2-1,4-1,6c-1,1-1,3-2,5s-2,4-3,5l0,0
			c-2,3-5,5-9,5c-3,0-6-1-9-3c-1-1-3-2-5-3c-3-1-6-2-8-3c-3-1-6-1-9-1s-6,0-8,1s-4,2-5,3s-2,2-3,4l0,0c0,1-1,3-1,5c0,1,1,2,1,3
			c1,1,3,3,4,4c3,2,5,4,8,5c3,2,7,4,10,6c4,2,7,5,10,7c4,3,8,6,11,10s5,8,7,13s3,11,3,17c0,9-2,17-6,25s-9,15-16,21s-15,10-23,13
			c-10,3-20,5-31,5c-5,0-11-1-16-2s-9-2-14-3c-3-2-7-3-10-5c-3-1-5-3-7-5c-3-4-4-8-4-12c0-1,0-3,0-4c0-2,0-3,1-5c0-2,0-3,1-5l0,0
			c0-2,1-4,2-6l0,0c1-2,2-4,3-5c0,0,0,0,0-1c2-2,5-4,9-4c3,0,7,2,10,4c2,1,4,2,6,4l0,0c3,1,6,2,9,3c4,2,8,2,12,2c3,0,7,0,10-2
			c3,0,5-1,7-3c1-1,2-3,3-5c1-1,1-3,1-5s0-3,0-4c-2-2-3-3-5-4c-2-2-4-4-7-5c-3-2-6-4-10-6c-3-2-7-4-10-7c-4-3-7-6-10-10s-5-8-7-13
			s-3-11-3-17c0-8,2-17,5-24c4-8,9-14,15-20c7-5,14-9,22-12c9-3,18-4,27-4c5,0,9,0,14,1c4,1,7,2,11,3c3,1,7,2,10,4
			C1042,900,1044,901,1046,903z M1210,1006c-2,11-6,21-11,30c-5,8-11,16-19,22c-7,6-16,11-25,13c-10,3-20,5-31,5c-10,0-21-1-31-5
			c-9-3-16-7-22-14s-10-16-11-25c-2-10-1-21,1-31l19-96l0,0c1-2,2-5,4-6l0,0c2-2,4-3,6-4s5-1,7-2c3,0,6,0,9,0s6,0,9,0c2,1,5,1,7,2
			c3,1,5,3,7,5v1c1,2,1,5,1,8l-19,96c-1,4-2,9-1,14c0,2,1,5,2,7c2,2,3,3,5,4c4,1,7,2,11,2s8-1,12-2c3-2,6-3,9-6c3-2,5-6,7-9
			c2-4,4-8,5-13l19-97l0,0c1-2,2-5,3-6c1,0,1,0,1,0c1-2,4-3,6-4s5-1,7-2c3,0,6,0,9,0s6,0,9,0c2,1,4,1,6,2c3,1,5,3,7,5l0,0
			c2,3,2,6,1,9L1210,1006z M1227,1058l29-145c2-6,4-11,9-15c4-3,9-4,14-4h17c3,0,7,0,10,1s6,3,8,5c3,2,4,5,6,8c1,3,2,6,3,9l22,67
			c0-1,1-2,1-3l0,0l15-76c1-2,2-5,3-6c2-2,4-3,7-4c2-1,4-1,6-1c3-1,5-1,8-1s6,0,8,1c3,0,5,0,7,1c3,1,5,3,6,5c2,3,2,6,2,8l-30,146
			c0,3-1,6-3,9c-1,2-3,4-5,5v1c-2,1-5,2-7,3c-3,1-5,1-8,1h-14c-3,0-6,0-9-1c0,0,0,0-1,0c-3-1-6-3-8-6c-2-2-4-5-5-8c-2-4-3-7-4-11
			l-23-70c0,1-1,1-1,2l-16,83l0,0c-1,2-2,4-4,6c-1,2-4,3-6,4l0,0c-2,1-4,1-6,1c-3,1-6,1-9,1s-5,0-8-1c-2,0-4-1-6-1c-1,0-1,0-1,0
			c-2-2-5-3-6-6v-1C1227,1063,1227,1060,1227,1058z M1830,935c2,1,4,1,5,2c3,1,5,3,7,5c1,3,2,6,1,8l-22,112l0,0c-1,2-2,4-4,6
			c-1,2-4,3-6,4l0,0c-2,1-5,1-7,1c-3,1-6,1-8,1c-3,0-6,0-9-1c-2,0-4,0-6-1c0,0,0,0-1,0c-2-1-5-3-6-6c-1-2-2-5-1-8l22-111l0,0
			c0-3,1-5,3-7c2-1,4-3,6-3c3-1,5-1,7-2c1,0,2,0,3,0c-1,0-1,0-1,0c-4-1-7-3-10-6c-2-3-3-6-4-10l0,0c0-3,0-7,1-10s2-7,3-10
			c2-3,4-6,7-8c2-2,6-4,9-4c4-1,7-1,11-1s7,0,11,1c3,1,7,2,9,5l0,0c3,3,4,7,4,11c0,3,0,6-1,9c0,4-1,7-3,10c-1,3-3,6-6,8
			c-3,3-6,4-10,5C1833,935,1831,935,1830,935z M1491,982c-1-1-2-2-4-3c-1-1-3-2-4-3c-2,0-5,0-7,0c-3,0-5,0-7,1c-3,2-5,4-7,6
			s-4,5-5,8c-2,4-3,7-4,11c-1,3-1,6-2,10c0,3,0,6,0,8c0,3,0,8,2,10s5,2,7,2c3,0,7,0,9-1c3-1,5-2,7-3s4-3,6-4c3-2,6-3,10-3s7,2,9,6
			c1,2,2,4,2,7c0,2-1,4-1,6c0,3-1,5-1,8c-1,2-2,4-3,7l0,0c-1,3-2,5-4,7c-1,0-1,0-1,1c-2,1-4,3-7,4c-3,2-6,4-9,5c-4,1-8,2-12,3
			c-4,0-9,1-13,1c-14,0-28-3-38-14c-10-10-13-24-13-38c0-6,0-12,1-18c1-7,3-13,5-20c3-7,6-13,10-19c3-7,8-12,14-17c6-6,13-10,20-13
			c8-3,17-4,26-4c4,0,7,0,11,1c3,0,7,1,10,2s6,2,9,4c2,1,4,3,6,4c0,0,0,0,0,1c2,1,3,3,4,5l0,0c1,2,1,4,1,6c0,3,0,5-1,8c0,3-1,6-2,8
			c-1,3-2,6-4,8c-3,3-6,6-11,6C1497,986,1494,984,1491,982z M1579,1066c-4,3-9,5-14,7c-6,2-11,3-17,3c-7,0-14-1-21-5
			c-5-3-10-7-14-12c-3-5-5-11-7-17c-1-5-1-11-1-17c0-7,0-13,1-19c1-7,3-13,5-20s5-13,9-19c3-7,8-12,13-17s11-10,18-13c8-3,16-4,24-4
			s15,1,22,5c2,1,4,2,6,4c1-3,4-5,7-6c4-1,10-1,14-1c3,0,5,0,7,0s5,1,6,2c3,1,5,2,7,5c1,2,1,5,1,8l-22,112c-2,5-5,9-10,10
			c-4,1-10,2-14,2c-2,0-5,0-7-1c-2,0-4,0-6-1C1583,1071,1580,1069,1579,1066L1579,1066z M1589,984c-1-2-3-4-5-5c-2-2-5-2-7-2
			s-4,0-6,1s-4,3-5,5c-2,2-4,5-5,8c-2,3-3,6-4,10c-1,3-2,7-2,11c-1,3-1,6-1,10c0,2,0,3,0,5c1,1,1,3,1,3c1,1,1,1,2,2l0,0c0,0,1,0,2,0
			c2,0,5-1,7-2c3-2,6-5,8-8c3-3,6-7,8-11s4-9,5-14L1589,984z M1684,1070l-7,36c-1,2-2,4-3,6c-1,0-1,0-1,1c-2,1-4,3-6,3c-2,1-5,2-7,2
			c-3,0-6,0-9,0c-2,0-5,0-8,0c-2,0-5-1-7-2c-3-1-5-3-6-5c0,0,0-1-1-1c-1-2-1-5-1-7l32-156c1-6,4-9,9-11c5-1,10-1,14-1c3,0,5,0,8,0
			c2,0,4,1,6,2s4,2,6,5c0,0,0,0,0,1c5-3,9-6,14-7c6-2,12-3,17-3c7,0,14,1,20,4s11,7,14,12c4,5,6,10,7,16c2,6,2,13,2,19s0,12-1,19
			s-3,13-5,20c-2,6-5,13-9,19c-3,6-8,12-13,17s-11,9-18,12c-8,3-15,5-23,5c-4,0-8-1-12-1c-3-1-6-2-10-4
			C1686,1071,1685,1070,1684,1070z M1693,1025c1,2,3,4,5,5s5,2,8,2c2,0,3-1,5-1c2-2,4-3,5-5c2-3,4-5,5-8c2-3,3-7,4-10c1-4,2-7,2-11
			c1-4,1-7,1-10c0-2,0-4-1-6c0-1,0-3-1-3c0-1,0-1,0-1c-1,0-2,0-2,0c-3,0-5,0-7,2c-4,2-7,4-9,7c-3,3-6,7-8,11c-2,5-3,9-4,14l0,0
			L1693,1025z M1938,964c-1,2-2,4-2,5c-1,2-3,4-4,6c-2,2-5,3-9,3h-17l-9,46c0,1-1,2-1,4c0,1,0,2,0,3c0,0,0,0,0,1h1c1,0,2,0,4,0
			c0-1,1-1,2-1l0,0c1,0,2-1,2-1c2-1,4-1,6-1c3,0,6,2,8,4c2,3,3,6,3,9c0,2,0,4-1,6c0,3-1,5-1,7c-1,2-2,4-2,6c0,0,0,0-1,0c0,3-2,5-3,6
			c-2,2-4,3-6,4c-3,1-5,2-7,3c-3,0-5,1-8,1c-2,0-5,0-8,0c-5,0-10,0-15-1c-5-2-9-4-13-7s-7-8-8-12c-2-5-3-11-3-16c0-1,0-3,0-4
			s1-3,1-4c0-2,0-3,0-4c1-2,1-3,1-5l9-44h-3c-4,0-7-1-10-5c-1-2-2-5-2-8s0-5,1-7c0-3,1-6,1-8c1-3,3-6,4-8c3-4,7-6,11-6h7l3-19
			c1-2,2-4,4-6c1-2,3-3,6-4c2-1,4-1,7-1c3-1,5-1,8-1s6,0,9,1c2,0,5,0,7,1s5,3,6,5c0,1,0,1,0,1c2,2,2,5,2,8l-3,15h13c4,0,8,2,11,5
			c1,3,1,6,1,9c0,1,0,2,0,4c0,1,0,3-1,5C1939,960,1938,962,1938,964z M1998,1066c-4,3-9,5-14,7s-11,3-17,3c-7,0-14-1-20-5
			c-6-3-11-7-14-12c-4-5-6-11-7-17c-1-5-2-11-2-17c0-7,1-13,2-19c1-7,2-13,5-20c2-7,5-13,8-19c4-7,8-12,13-17c6-5,12-10,19-13
			s15-4,23-4s15,1,22,5c2,1,4,2,6,4c2-3,5-5,8-6c4-1,9-1,13-1c3,0,5,0,8,0c2,0,4,1,6,2c3,1,5,2,6,5c1,2,2,5,1,8l-22,112
			c-1,5-5,9-10,10c-4,1-9,2-14,2c-2,0-4,0-7-1c-2,0-4,0-6-1C2002,1071,2000,1069,1998,1066L1998,1066z M2009,984c-2-2-3-4-5-5
			c-3-2-5-2-8-2c-2,0-4,0-6,1s-3,3-5,5s-4,5-5,8s-3,6-4,10c-1,3-1,7-2,11c0,3-1,6-1,10c0,2,0,3,1,5c0,1,0,3,1,3c0,1,0,1,1,2l0,0
			c1,0,2,0,2,0c2,0,5-1,7-2c3-2,6-5,9-8s5-7,7-11s4-9,5-14L2009,984z M2102,1068c-2,2-4,3-7,4l0,0c-2,1-4,1-7,1c-2,1-5,1-8,1
			s-6,0-9-1c-2,0-4,0-6-1l0,0c-3-1-5-3-7-5v-1c-1-2-2-5-1-8l33-164l0,0c0-3,1-5,2-6c1,0,1-1,1-1c2-2,4-3,6-4c2,0,5-1,7-1
			c3,0,6-1,9-1s6,1,8,1c3,0,5,1,7,2c3,1,5,3,7,5l0,0c1,3,1,6,1,8l-33,165l0,0C2104,1064,2103,1066,2102,1068z"/>
		<path fill="#FFC615" d="M1042,915c0,1,0,1,0,3c0,1,0,2,0,4c-1,1-1,3-1,4c-1,2-1,3-2,5c0,1-1,2-2,3c0,1-1,1-2,1s-2,0-4-1s-4-3-7-4
			c-2-1-5-2-9-3c-3-1-7-2-11-2c-5,0-9,1-12,2s-5,3-7,5s-4,4-5,7c-1,2-1,5-1,8s1,5,2,8c2,2,4,4,6,6c3,2,5,4,9,6c3,1,6,3,9,5
			c4,2,7,5,10,7s6,5,9,8c2,3,4,7,6,11c1,4,2,9,2,14c0,8-1,15-5,22c-3,6-7,12-13,17s-13,9-21,12s-18,4-28,4c-5,0-10,0-15-1
			c-4-1-8-2-12-3c-3-2-6-3-9-4c-2-2-4-3-5-4c-1-2-2-3-2-6c0-1,0-2,0-3c1-1,1-3,1-4c0-2,1-3,1-5c1-2,1-3,2-5c0-1,1-2,2-3c0-1,1-1,2-1
			s3,1,5,2s4,3,7,4c3,2,7,3,11,4c4,2,8,2,14,2c5,0,9,0,13-1c4-2,7-3,9-5c3-3,5-5,6-8s2-6,2-9s-1-6-2-9c-2-2-4-4-6-6c-3-2-5-4-9-6
			c-3-1-6-3-9-5s-7-4-10-7c-3-2-6-5-8-8c-3-3-4-7-6-11c-1-4-2-9-2-14c0-7,1-14,4-21c3-6,7-11,13-16c5-5,11-8,19-11c7-2,15-3,24-3
			c4,0,8,0,12,0c4,1,7,2,11,3c3,1,5,2,7,3c3,1,4,2,5,3s1,2,2,2C1042,912,1042,914,1042,915z M1201,1005c-2,10-5,19-9,27
			c-5,8-10,14-17,19c-6,6-14,10-23,12c-8,3-18,4-28,4c-11,0-20-1-28-4s-14-7-19-12s-8-12-9-20s-1-17,1-28l20-96c0-1,0-2,1-2
			c0-1,1-2,3-2c1,0,3-1,5-1s5,0,8,0s6,0,8,0s4,1,5,1s2,1,2,2c1,0,1,1,1,2l-20,96c-1,6-1,12-1,17c1,4,2,8,4,11c3,3,6,6,9,7
			c4,2,9,2,14,2s10-1,15-2c4-2,8-4,12-7c3-3,6-7,9-12c2-4,4-10,5-15l20-97c0-1,0-2,1-2c0-1,1-2,3-2c1,0,3-1,5-1s5,0,8,0s6,0,8,0
			s3,1,4,1c2,0,2,1,3,2c0,0,0,1,0,2L1201,1005z M1370,1053c0,2-1,3-2,5c-1,1-2,3-3,4c-2,1-3,1-5,2c-1,0-3,1-5,1h-14c-3,0-5-1-7-1
			c-2-1-3-2-5-3c-1-2-2-4-4-7c-1-2-2-5-3-9l-24-73c-2-5-3-11-5-17c-2-5-3-11-4-17h-1c0,7-1,13-2,20c-2,6-3,13-4,19l-17,83
			c0,1,0,1-1,2c0,1-1,1-3,2c-1,0-3,0-5,1c-1,0-4,0-7,0s-5,0-7,0c-2-1-3-1-4-1c-1-1-2-1-2-2c-1-1-1-1,0-2l29-146c1-4,2-7,5-9s6-3,9-3
			h17c3,0,5,1,7,1c2,1,4,2,5,3c2,2,3,3,4,6c1,2,2,4,3,8l24,73c1,4,3,9,4,13c2,5,3,10,4,14h1c1-6,2-12,3-18c1-7,2-13,3-19l16-76
			c0-1,0-2,1-2c0-1,1-2,2-2c2,0,3-1,5-1s4,0,7,0s6,0,8,0c1,0,3,1,4,1s2,1,2,2c0,0,0,1,0,2L1370,1053z"/>
		<path fill="#0384C0" d="M1509,956c0,2,0,4,0,6c-1,3-1,5-2,7s-2,4-3,6c-1,1-2,2-4,2c-1,0-2-1-3-2c-2-1-3-2-5-3c-1-1-4-2-6-3
			c-3-2-6-2-10-2s-8,1-12,3c-3,2-6,4-9,7c-2,3-4,7-6,11s-3,7-4,11s-2,8-2,12c-1,3-1,7-1,9c0,7,1,12,4,16c3,3,8,5,14,5c5,0,9-1,12-2
			c4-1,6-2,9-4c2-1,4-3,6-4s3-2,5-2c0,0,1,1,1,2c1,0,1,1,1,3c0,1,0,3-1,5c0,2,0,4-1,7c0,2-1,4-2,6c0,2-1,3-2,4c-2,1-3,3-6,4
			c-2,1-5,2-8,4c-3,1-7,1-10,2c-4,1-8,1-12,1c-14,0-25-3-32-11c-7-7-11-18-11-32c0-5,1-10,2-17c1-6,2-12,5-18c2-6,4-12,8-18
			c3-6,8-11,13-15s10-8,17-11c7-2,14-4,23-4c3,0,6,1,10,1c3,1,6,1,8,2c3,1,5,2,7,3c2,2,4,3,5,4s2,1,2,2S1509,955,1509,956z
			 M1614,1060c0,2-2,3-4,4s-6,1-11,1c-3,0-5,0-6,0c-2,0-3-1-4-1s-2-1-2-1c0-1,0-2,0-3l3-18c-1,3-3,6-6,9s-6,5-10,8c-3,2-7,4-12,6
			c-5,1-9,2-14,2c-7,0-12-1-17-3c-4-3-8-6-10-10c-3-4-5-8-6-13s-2-11-2-16c0-6,1-11,2-18c1-6,2-12,4-18s5-12,8-18c4-6,7-11,12-15
			c5-5,10-8,16-11c6-2,12-4,20-4c7,0,13,2,18,5c5,2,10,7,14,12l2-10c0-2,2-3,4-4c2,0,6-1,11-1c3,0,5,0,6,1c2,0,3,0,4,1c1,0,2,0,2,1
			s1,1,0,2L1614,1060z M1598,982c-2-5-6-8-9-10c-4-3-8-4-12-4s-7,1-10,3c-3,1-6,4-8,6c-2,3-4,6-6,10s-3,8-4,12c-1,3-2,7-3,11
			c0,5-1,8-1,12c0,2,1,5,1,7s1,4,2,6s2,3,4,4s4,1,7,1s7-1,11-3s7-5,11-9c3-4,6-8,9-13c2-5,4-11,5-16L1598,982z M1769,984
			c0,5-1,11-2,17c-1,7-2,13-4,19s-5,12-8,18c-4,6-7,11-12,15s-10,8-16,10c-6,3-12,4-19,4c-4,0-7,0-10-1s-5-1-8-3c-2-1-4-2-6-4
			s-4-3-6-5l-10,50c0,1,0,2-1,3c-1,0-1,1-3,1c-1,1-3,1-5,1c-2,1-5,1-8,1s-5,0-7-1c-2,0-4,0-5-1c-1,0-2-1-2-1c0-1,0-2,0-3l31-156
			c0-2,2-3,4-4c2,0,6-1,11-1c3,0,5,0,7,1c1,0,2,0,3,1c1,0,2,0,2,1c1,1,1,1,1,2l-4,18c1-2,3-5,6-8s6-6,10-8c4-3,8-5,12-6
			c5-2,9-3,14-3c7,0,12,1,17,4c4,2,7,5,10,9s5,8,6,13S1769,978,1769,984z M1737,987c0-3-1-6-1-8c-1-2-1-4-2-6s-3-3-4-4c-2-1-4-1-6-1
			c-4,0-8,1-12,3s-7,6-10,9c-4,4-7,9-9,14c-3,5-5,10-6,16l-3,17c3,4,6,8,9,10c4,2,8,3,13,3c3,0,6,0,9-2s6-4,8-7s4-6,6-9
			c2-4,3-8,4-12s2-8,3-12C1736,994,1737,990,1737,987z M1845,911c-1,3-1,5-2,8c-1,2-3,3-5,5c-1,1-3,2-6,2c-2,1-5,1-9,1c-3,0-6,0-8-1
			c-2,0-4-1-5-2c-1-2-2-3-2-5c0-3,0-5,1-8c0-3,1-6,2-8s2-4,4-5s4-2,6-3s5-1,9-1s6,0,9,1c2,1,4,2,5,3s1,3,2,5
			C1846,905,1846,908,1845,911z M1813,1060c-1,1-1,2-2,2c0,1-1,1-3,2c-1,0-3,1-5,1s-4,0-7,0s-6,0-8,0s-3-1-4-1c-2-1-2-1-3-2
			c0,0,0-1,0-2l22-111c0-1,1-2,1-3c1,0,2-1,3-1c2-1,3-1,5-1c2-1,5-1,8-1s6,0,8,1c1,0,3,0,4,1c1,0,2,1,2,1c1,1,1,2,1,3L1813,1060z
			 M1932,950c0,0,0,1-1,3c0,1,0,2,0,4c-1,1-1,3-1,4c-1,2-1,3-2,5c-1,1-1,2-2,3c-1,0-2,1-3,1h-24l-11,52c0,1,0,3,0,5c-1,1-1,3-1,4
			c0,3,1,6,3,7c1,2,4,2,7,2c2,0,4,0,5,0c2,0,3-1,4-1s2-1,3-1c0,0,1,0,2,0s1,0,2,1c0,0,0,1,0,3c0,1,0,3,0,5c-1,2-1,4-2,6c0,2-1,3-1,5
			c-1,1-2,3-2,3c-1,1-2,2-4,3c-1,0-3,1-5,1c-2,1-4,1-7,1c-2,1-5,1-7,1c-5,0-9-1-13-2s-7-2-10-5c-2-2-4-5-5-8c-2-4-2-8-2-13
			c0-1,0-2,0-3s0-3,0-4s1-3,1-4c0-2,0-3,1-4l10-54h-13c-1,0-2-1-2-1c-1-1-1-2-1-4s0-4,0-6s1-5,2-7c0-2,1-4,2-5c1-2,3-3,4-3h14l5-25
			c0-1,0-1,1-2c0-1,1-1,3-2c1,0,3-1,5-1s4,0,7,0s6,0,8,0s3,1,5,1c1,1,1,1,2,2c0,1,0,1,0,2l-5,25h24c2,0,2,1,3,1
			C1931,946,1932,948,1932,950z M2033,1060c0,2-1,3-3,4c-3,1-6,1-12,1c-2,0-4,0-6,0c-1,0-3-1-4-1s-1-1-2-1c0-1,0-2,0-3l4-18
			c-2,3-4,6-6,9c-3,3-6,5-10,8c-4,2-8,4-13,6c-4,1-9,2-14,2c-6,0-12-1-16-3c-5-3-8-6-11-10s-5-8-6-13s-1-11-1-16c0-6,0-11,1-18
			c1-6,3-12,5-18s4-12,8-18c3-6,7-11,11-15c5-5,10-8,16-11c6-2,13-4,20-4s13,2,18,5c6,2,10,7,14,12l2-10c1-2,2-3,4-4c3,0,6-1,11-1
			c3,0,5,0,7,1c1,0,3,0,4,1c1,0,1,0,2,1c0,1,0,1,0,2L2033,1060z M2018,982c-3-5-6-8-10-10c-3-3-7-4-12-4c-4,0-7,1-10,3c-3,1-5,4-8,6
			c-2,3-4,6-6,10c-1,4-3,8-4,12c-1,3-2,7-2,11c-1,5-1,8-1,12c0,2,0,5,0,7c1,2,1,4,2,6s3,3,5,4c1,1,3,1,6,1c4,0,7-1,11-3s8-5,11-9
			s6-8,9-13c2-5,4-11,5-16L2018,982z M2097,1060c-1,1-1,2-2,2c0,1-1,1-2,2c-2,0-3,1-5,1c-3,0-5,0-8,0s-6,0-8,0s-3-1-4-1
			c-1-1-2-1-2-2c-1,0-1-1-1-2l33-165c0,0,1-1,1-2c1,0,2-1,3-1c1-1,3-1,5-2c2,0,5,0,8,0s5,0,7,0c2,1,4,1,5,2c1,0,2,1,2,1c0,1,1,2,0,2
			L2097,1060z"/>
		<path fill="#A57A1A" d="M984,958c1,1,2,2,3,3c3,2,5,4,9,6c3,1,6,3,9,5c4,2,7,5,10,7s6,5,9,8c1,2,3,4,4,6c-3-3-5-5-8-7
			c-4-3-7-5-10-7s-7-4-10-6s-6-3-8-5c-3-2-5-5-6-7C985,960,984,959,984,958z M927,1057c-1-1-2-2-3-2c-1-2-2-3-2-6c0-1,0-2,0-3
			c1-1,1-3,1-4c0-2,1-3,1-5c1-2,1-3,2-5c0-1,1-2,2-3c0-1,1-1,2-1s3,1,5,2s4,3,7,4c3,2,7,3,11,4c4,2,8,2,14,2c5,0,9,0,13-1
			c4-2,7-3,9-5c3-3,5-5,6-8s2-6,2-9c0-2,0-4-1-6c1,2,2,3,3,4c2,2,2,5,2,8c0,4,0,7-2,10c-1,3-3,5-5,7c-3,2-6,4-10,5c-3,2-8,2-13,2
			s-10-1-14-2s-7-3-10-4c-3-2-6-3-8-4c-2-2-3-2-5-2c-1,0-1,0-2,1s-1,2-2,3c0,1-1,3-1,5c-1,1-1,3-1,4c-1,2-1,3-1,5c0,1,0,2,0,3V1057z
			 M954,977c-1,0-1-1-1-1c-3-3-4-7-6-11c-1-4-2-9-2-14c0-7,1-14,4-21c3-6,7-11,13-16c5-5,11-8,19-11c7-2,15-3,24-3c4,0,8,0,12,0
			c4,1,7,2,11,3c3,1,5,2,7,3c3,1,4,2,5,3s1,2,2,2c0,1,0,2,0,3c0,0-1-1-2-1c-2-1-5-3-8-3c-3-1-7-2-10-3c-4,0-8-1-12-1c-9,0-17,1-25,4
			c-7,3-14,6-19,11c-5,4-9,10-12,16s-5,13-5,21c0,5,1,10,2,14C952,974,953,975,954,977z M1077,1051c-5-6-8-12-9-20s-1-17,1-28l20-96
			c0-1,0-2,1-2c0-1,1-2,3-2c1,0,3-1,5-1s5,0,8,0s6,0,8,0s4,1,5,1s2,1,2,2c1,0,1,1,1,2l-1,2c-1,0-2,0-3,0c-2-1-4-1-7-1c-4,0-6,0-8,1
			c-3,0-4,0-6,1c-1,0-2,1-3,1c0,1-1,2-1,3l-19,96c-2,10-3,20-1,28C1073,1042,1075,1047,1077,1051z M1107,1034c2,1,5,3,7,4
			c4,2,9,2,14,2s10-1,15-2c4-2,8-4,12-7c3-3,6-7,9-12c2-4,4-10,5-15l20-97c0-1,0-2,1-2c0-1,1-2,3-2c1,0,3-1,5-1s5,0,8,0s6,0,8,0
			s3,1,4,1c2,0,2,1,3,2c0,0,0,1,0,2v2c-1,0-2,0-3,0c-2-1-5-1-8-1s-6,0-8,1c-2,0-4,0-5,1c-1,0-2,1-3,1c0,1-1,2-1,3l-20,96
			c-1,6-3,11-5,16c-2,4-5,8-9,11c-3,3-7,6-12,7c-4,2-9,3-15,3c-5,0-9-1-13-2c-4-2-7-4-9-7C1109,1037,1108,1035,1107,1034z
			 M1330,1061h-1c-1-2-2-4-4-7c-1-2-2-5-3-9l-24-73c-2-5-3-11-5-17c0-1-1-2-1-4s1-4,1-6l0,0c1,6,3,11,4,17c2,6,4,11,6,17l24,72
			C1328,1055,1329,1059,1330,1061L1330,1061z M1240,1064c-1,0-2,0-2,0c-1-1-2-1-2-2c-1-1-1-1,0-2l29-146c1-4,2-7,5-9s6-3,9-3h17
			c3,0,5,1,7,1c2,1,4,2,5,3c2,2,3,3,4,6c0,0,0,0,0,1c-1-2-3-2-4-3c-2-1-5-1-7-1h-18c-3,0-6,1-9,3c-2,2-4,5-5,9L1240,1064z
			 M1348,1016c1-5,2-9,3-14c1-7,2-13,3-19l16-76c0-1,0-2,1-2c0-1,1-2,2-2c2,0,3-1,5-1s4,0,7,0s6,0,8,0c1,0,3,1,4,1s2,1,2,2
			c0,0,0,1,0,2v2c-1,0-1,0-2,0c-2,0-4,0-7,0s-6,0-8,0s-3,0-4,1c-1,0-2,1-3,1c-1,1-1,2-1,2l-15,77c-2,6-3,12-4,18c-1,7-2,13-3,19l0,0
			C1351,1023,1349,1020,1348,1016z"/>
		<path fill="#155376" d="M1448,1037c3,3,7,4,12,4s9-1,12-2c4-1,6-2,9-4c2-1,4-3,6-4s3-2,5-2c0,0,1,1,1,2c1,0,1,1,1,3c0,1,0,2,0,3
			c-1,0-2,0-3,1s-3,2-6,4c-2,1-5,3-8,4c-4,1-8,2-12,2c-7,0-11-2-14-6C1450,1041,1449,1039,1448,1037z M1419,1055c-7-7-10-18-10-31
			c0-5,1-10,2-17c1-6,2-12,5-18c2-6,4-12,8-18c3-6,8-11,13-15s10-8,17-11c7-2,14-4,23-4c3,0,6,1,10,1c3,1,6,1,8,2c3,1,5,2,7,3
			c2,2,4,3,5,4s2,1,2,2s0,2,0,3c0-1-1-1-2-2c-2-1-5-2-7-3c-3-1-6-2-9-2c-3-1-6-1-10-1c-8,0-16,1-23,4c-6,3-12,6-17,11
			c-5,4-9,9-13,15c-3,6-6,12-8,18s-4,12-5,18s-1,12-1,17C1414,1040,1415,1048,1419,1055z M1592,1065c-2,0-2-1-3-1s-2-1-2-1
			c0-1,0-2,0-3v-1c0,0,1-1,2-2c2-3,4-5,6-8L1592,1065z M1523,1057c-1-1-2-2-2-3c-3-4-5-8-6-13s-2-11-2-16c0-6,1-11,2-18
			c1-6,2-12,4-18s5-12,8-18c4-6,7-11,12-15c5-5,10-8,16-11c6-2,12-4,20-4c7,0,13,2,18,5c5,2,10,7,14,12l2-10c0-2,2-3,4-4
			c2,0,6-1,11-1c3,0,5,0,6,1c2,0,3,0,4,1c1,0,2,0,2,1s1,1,0,2v3c0-1-1-1-1-1c-2,0-4,0-6,0c-6,0-9,0-12,1c-2,1-3,2-4,4l-2,10
			c-4-6-8-10-14-13c-5-3-11-4-18-4s-14,1-20,4s-11,6-16,11c-4,4-8,9-11,15c-4,5-6,11-8,18c-2,6-4,12-5,18s-1,12-1,17c0,6,0,11,1,16
			C1520,1051,1521,1054,1523,1057z M1551,1038l1,1c2,1,4,1,7,1s7-1,11-3s7-5,11-9c3-4,6-8,9-13c2-5,4-11,5-16l3-16c2,1,3,3,5,5
			l-3,17c-2,6-4,12-6,17c-3,5-6,9-9,13s-7,7-11,9s-7,3-11,3c-3,0-5,0-6-1c-2-1-3-3-5-5C1552,1040,1551,1039,1551,1038z M1642,1109
			c-1,0-2,0-3-1c-1,0-2-1-2-1c0-1,0-2,0-3l31-156c0-2,2-3,4-4c2,0,6-1,11-1c3,0,5,0,7,1c1,0,2,0,3,1c1,0,2,0,2,1c1,1,1,1,1,2l-1,3
			c0-1-1-1-1-1c-2,0-4,0-6,0c-6,0-9,0-12,1c-2,1-3,2-3,4L1642,1109z M1700,956c2-2,5-4,8-6c4-3,8-5,12-6c5-2,9-3,14-3c7,0,12,1,17,4
			c4,2,7,5,10,9c1,1,2,3,3,4c-3-3-6-5-9-7c-4-2-10-3-16-3c-5,0-10,1-14,2c-5,2-9,4-13,6c-4,3-7,6-10,9c-2,3-4,5-6,8L1700,956z
			 M1737,987c0-3-1-6-1-8c0-1,0-2-1-2c1,1,2,1,3,3c1,1,2,3,2,6c1,2,1,4,1,7c0,4,0,8-1,12c0,4-1,8-2,12s-3,8-5,11c-1,4-3,7-6,10
			c-2,3-5,5-7,7c-3,1-6,2-10,2c-5,0-9-1-12-3c-4-3-7-6-10-11l0,0c2,1,4,3,5,4c4,2,8,3,13,3c3,0,6,0,9-2s6-4,8-7s4-6,6-9
			c2-4,3-8,4-12s2-8,3-12C1736,994,1737,990,1737,987z M1812,926c-1-1-2-2-2-2c-1-2-2-3-2-5c0-3,0-5,1-8c0-3,1-6,2-8s2-4,4-5
			s4-2,6-3s5-1,9-1s6,0,9,1c2,1,4,2,5,3s1,3,2,5c-1-1-2-1-3-1c-2-1-5-1-9-1c-3,0-6,0-9,1c-2,0-4,1-6,3c-1,1-3,3-4,5s-1,4-2,7
			s-1,6-1,8V926z M1786,1064c-1,0-2,0-2,0c-2-1-2-1-3-2c0,0,0-1,0-2l22-111c0-1,1-2,1-3c1,0,2-1,3-1c2-1,3-1,5-1c2-1,5-1,8-1
			s6,0,8,1c1,0,3,0,4,1c1,0,2,1,2,1c1,1,1,2,1,3l-1,2c-1,0-1,0-2-1c-2,0-5,0-8,0s-5,0-7,0c-2,1-4,1-5,1c-2,1-3,1-3,2c-1,1-1,1-1,2
			L1786,1064z M1932,950c0,0,0,0,0,1h-24l2-7h18c2,0,2,1,3,1C1931,946,1932,948,1932,950z M1892,1040c1,0,3,0,5,0s4,0,5,0
			c2,0,3-1,4-1s2-1,3-1c0,0,1,0,2,0s1,0,2,1c0,0,0,1,0,3c0,1,0,2,0,3c-1,0-2,0-3,1c-1,0-2,0-3,1c-2,0-3,0-5,0c-4,0-6-1-8-2
			C1893,1044,1892,1042,1892,1040z M1861,1059c-2-2-3-4-4-7c-2-4-2-8-2-13c0-1,0-2,0-3s0-3,0-4s1-3,1-4c0-2,0-3,1-4l9-48h6l-11,55
			c0,1-1,2-1,4c0,1,0,2,0,4c-1,1-1,2-1,3c0,2,0,3,0,4c0,5,1,9,2,12C1861,1059,1861,1059,1861,1059z M1855,970h-1c-1,0-2-1-2-1
			c-1-1-1-2-1-4s0-4,0-6s1-5,2-7c0-2,1-4,2-5c1-2,3-3,4-3h14l5-25c0-1,0-1,1-2c0-1,1-1,3-2c1,0,3-1,5-1s4,0,7,0s6,0,8,0s3,1,5,1
			c1,1,1,1,2,2c0,1,0,1,0,2v2c-1,0-2,0-3,0c-2,0-4,0-7,0s-6,0-8,0s-4,0-5,1c-1,0-2,1-3,2c0,0-1,1-1,2l-5,25h-13c-2,0-3,1-4,2
			c-1,2-2,4-3,6s-1,4-1,7C1855,967,1855,969,1855,970z M2011,1065c-1,0-2-1-3-1s-1-1-2-1c0-1,0-2,0-3v-1c1,0,1-1,2-2c3-3,5-5,6-8
			L2011,1065z M1942,1057c-1-1-1-2-2-3c-3-4-5-8-6-13s-1-11-1-16c0-6,0-11,1-18c1-6,3-12,5-18s4-12,8-18c3-6,7-11,11-15
			c5-5,10-8,16-11c6-2,13-4,20-4s13,2,18,5c6,2,10,7,14,12l2-10c1-2,2-3,4-4c3,0,6-1,11-1c3,0,5,0,7,1c1,0,3,0,4,1c1,0,1,0,2,1
			c0,1,0,1,0,2l-1,3c0-1,0-1-1-1c-2,0-4,0-6,0c-5,0-9,0-11,1c-3,1-4,2-4,4l-2,10c-4-6-9-10-14-13c-6-3-12-4-19-4s-14,1-20,4
			c-5,3-11,6-15,11c-5,4-9,9-12,15c-3,5-6,11-8,18c-2,6-4,12-5,18s-1,12-1,17c0,6,0,11,2,16C1939,1051,1941,1054,1942,1057z
			 M1970,1038c1,0,1,1,2,1c1,1,3,1,6,1c4,0,7-1,11-3s8-5,11-9s6-8,9-13c2-5,4-11,5-16l4-16c1,1,3,3,4,5l-3,17c-1,6-3,12-6,17
			c-2,5-5,9-9,13c-3,4-6,7-10,9s-8,3-12,3c-2,0-4,0-6-1s-3-3-4-5C1971,1040,1971,1039,1970,1038z M2070,1064c-1,0-2,0-2,0
			c-1-1-2-1-2-2c-1,0-1-1-1-2l33-165c0,0,1-1,1-2c1,0,2-1,3-1c1-1,3-1,5-2c2,0,5,0,8,0s5,0,7,0c2,1,4,1,5,2c1,0,2,1,2,1c0,1,1,2,0,2
			v2c-1,0-1,0-2,0c-2,0-5,0-8,0s-5,0-8,0c-2,0-3,1-5,1c-1,1-2,1-2,2c-1,1-1,1-2,2L2070,1064z"/>
		<polygon fill="#2F2F2F" points="0,1045 1855,1286 1853,1300 		"/>
	</g>
</g>
</svg>
